<svg xmlns="http://www.w3.org/2000/svg" viewBox="0 0 447.243 447.243">
  <path d="M420.361 192.229c-1.83-.297-3.682-.434-5.535-.41H99.305l6.88-3.2c6.725-3.183 12.843-7.515 18.08-12.8l88.48-88.48c11.653-11.124 13.611-29.019 4.64-42.4-10.441-14.259-30.464-17.355-44.724-6.914-1.152.844-2.247 1.764-3.276 2.754l-160 160c-12.504 12.49-12.515 32.751-.025 45.255l.025.025 160 160c12.514 12.479 32.775 12.451 45.255-.063.982-.985 1.899-2.033 2.745-3.137 8.971-13.381 7.013-31.276-4.64-42.4l-88.32-88.64c-4.695-4.7-10.093-8.641-16-11.68l-9.6-4.32h314.24c16.347.607 30.689-10.812 33.76-26.88 2.829-17.445-9.019-33.88-26.464-36.71z"/>
</svg>