<svg xmlns="http://www.w3.org/2000/svg" viewBox="0 0 479.536 479.536" style="height: 18px; width: 18px;">
  <path d="M475.804 336.286c-.5-2.7-1.1-5.5-2-8.2-8.6-24-33.2-38.4-58.3-34.1-8.3 1.3-16.1-4.4-17.4-12.7l-12.6-80.8c-10.5-68.5-60-124.6-126.6-143.4-6.1-37.1-41-62.2-78.1-56.2-36.6 6-61.7 40.2-56.4 76.9-57.4 36.3-87.8 103.3-77.1 170.5l13.6 86.1c1.2 8.3-4.4 16.1-12.7 17.4-25.2 3.6-44.2 24.8-45.1 50.3-.3 28.3 22.4 51.4 50.7 51.7h.5c2.7 0 5.3-.2 8-.6l52.5-8.3c18.3 32.6 59.5 44.3 92.2 26 17.2-9.7 29.4-26.3 33.3-45.7l192.9-30.4c27.9-4.4 47-30.6 42.6-58.5zm-302.1 109.2c-7.2 0-14.3-2.3-20.1-6.6l47.8-7.5c-6.4 8.9-16.7 14.1-27.7 14.1zm46-394.1c-6.4-.2-12.7 0-19.1.5-6.7.6-13.3 1.7-19.9 3.1-1.4.3-2.8.7-4.2 1-5.4 1.3-10.6 2.7-15.8 4.5-.5.1-1.1.2-1.6.4 3.6-12.9 14.4-22.5 27.6-24.5 1.8-.3 3.6-.4 5.4-.4 11.4.1 22.1 5.8 28.4 15.4h-.8z"/>
</svg>