<svg xmlns="http://www.w3.org/2000/svg" viewBox="0 0 443.734 443.734">
  <path d="M436.139 54.045c-64.348-43.029-147.684-45.292-214.272-5.82C155.278 8.753 71.942 11.016 7.595 54.045 2.849 57.211-.001 62.539 0 68.244v338.21c-.001 9.426 7.638 17.068 17.064 17.069 3.372 0 6.669-.998 9.475-2.87 56.238-37.631 129.618-37.631 185.856 0 .222.154.478.188.7.324.222.137.461.375.717.529.596.255 1.206.477 1.826.666.62.282 1.259.521 1.911.717.943.218 1.902.361 2.867.427.495 0 .956.205 1.451.205h.427c.573-.042 1.142-.116 1.707-.222.864-.087 1.72-.241 2.56-.461.581-.19 1.151-.412 1.707-.666.529-.222 1.092-.341 1.604-.614.239-.137.427-.341.666-.495.239-.154.512-.205.751-.358 56.238-37.631 129.618-37.631 185.856 0 7.822 5.26 18.426 3.183 23.686-4.639 1.91-2.84 2.922-6.189 2.904-9.612V68.244c-.001-5.705-2.851-11.033-7.596-14.199z"/>
</svg>