<svg xmlns="http://www.w3.org/2000/svg" viewBox="0 0 448.264 448.264">
  <path d="M.003 194.874c-.195 16.946 10.251 32.197 26.122 38.139v-72.62c0-1.045.522-2.612.522-3.657C10.669 162.63.042 177.842.003 194.874zM142.631 284.735H74.19l25.6 92.996c3.791 14.192 16.657 24.056 31.347 24.033 10.452.124 20.341-4.724 26.645-13.061 6.365-7.932 8.328-18.527 5.224-28.212l-20.375-75.756zM26.648 156.212h.522v-.522c0 .522 0 .522-.522.522zM401.244 148.898h-4.18v94.041h4.18c25.969 0 47.02-21.052 47.02-47.02 0-25.969-21.052-47.021-47.02-47.021zM41.799 160.392v74.188c.565 19.212 16.307 34.49 35.526 34.482h95.086V128H77.325c-18.808 0-35.526 13.584-35.526 32.392zM188.084 271.151l193.306 77.323V46.498l-193.306 77.323z"/>
</svg>