<svg height="512" width="512" xmlns="http://www.w3.org/2000/svg">
  <path d="M512 169v-59c0-24.813-20.187-45-45-45h-6v55c0 8.284-6.716 15-15 15s-15-6.716-15-15V40c0-8.284-6.716-15-15-15s-15 6.716-15 15v25H301v55c0 8.284-6.716 15-15 15s-15-6.716-15-15V40c0-8.284-6.716-15-15-15s-15 6.716-15 15v25H141v55c0 8.284-6.716 15-15 15s-15-6.716-15-15V40c0-8.284-6.716-15-15-15s-15 6.716-15 15v25H45C20.187 65 0 85.187 0 110v59zM0 199v243c0 24.813 20.187 45 45 45h422c24.813 0 45-20.187 45-45V199H0zm144 208h-32c-8.284 0-15-6.716-15-15s6.716-15 15-15h32c8.284 0 15 6.716 15 15s-6.716 15-15 15zm0-64h-32c-8.284 0-15-6.716-15-15s6.716-15 15-15h32c8.284 0 15 6.716 15 15s-6.716 15-15 15zm0-64h-32c-8.284 0-15-6.716-15-15s6.716-15 15-15h32c8.284 0 15 6.716 15 15s-6.716 15-15 15zm128 128h-32c-8.284 0-15-6.716-15-15s6.716-15 15-15h32c8.284 0 15 6.716 15 15s-6.716 15-15 15zm0-64h-32c-8.284 0-15-6.716-15-15s6.716-15 15-15h32c8.284 0 15 6.716 15 15s-6.716 15-15 15zm0-64h-32c-8.284 0-15-6.716-15-15s6.716-15 15-15h32c8.284 0 15 6.716 15 15s-6.716 15-15 15zm128 128h-32c-8.284 0-15-6.716-15-15s6.716-15 15-15h32c8.284 0 15 6.716 15 15s-6.716 15-15 15zm0-64h-32c-8.284 0-15-6.716-15-15s6.716-15 15-15h32c8.284 0 15 6.716 15 15s-6.716 15-15 15zm0-64h-32c-8.284 0-15-6.716-15-15s6.716-15 15-15h32c8.284 0 15 6.716 15 15s-6.716 15-15 15z"/>
</svg>