<svg xmlns="http://www.w3.org/2000/svg" width="442.76">
  <path d="M237.08 31.616c-113.594 0-205.679 84.96-205.679 189.764 0 28.473 6.809 55.473 18.986 79.711L1.735 389.063C-.969 393.95-.48 399.979 2.974 404.37c2.672 3.396 6.722 5.299 10.911 5.299 1.223 0 2.457-.162 3.674-.498l106.505-29.232c32.434 19.719 71.269 31.205 113.016 31.205 113.595 0 205.681-84.959 205.681-189.764-.001-104.804-92.087-189.764-205.681-189.764zM217.881 145.28c0-10.201 8.298-18.5 18.5-18.5s18.5 8.299 18.5 18.5v101c0 10.201-8.299 18.5-18.5 18.5s-18.5-8.299-18.5-18.5v-101zm18.499 170.7c-11.225 0-20.356-9.132-20.356-20.356 0-11.227 9.133-20.359 20.356-20.359 11.227 0 20.357 9.133 20.357 20.359.001 11.225-9.13 20.356-20.357 20.356z"/>
</svg>