<svg xmlns="http://www.w3.org/2000/svg" viewBox="0 0 512.05 512.05" style="height: 20px; width: 20px;">
  <path d="M256.025.05C117.67-2.678 3.184 107.038.025 245.383c.361 70.423 31.544 137.157 85.333 182.613v73.387c0 5.891 4.776 10.667 10.667 10.667 1.999 0 3.958-.562 5.653-1.621l59.456-37.141c30.292 11.586 62.459 17.494 94.891 17.429 138.355 2.728 252.841-106.988 256-245.333C508.866 107.038 394.38-2.678 256.025.05z" />
  <path d="M424.558 174.983c-3.174-4.254-8.993-5.527-13.653-2.987l-110.933 60.48-69.013-59.179c-4.232-3.628-10.544-3.387-14.485.555l-128 128c-4.153 4.178-4.133 10.932.046 15.085 3.341 3.321 8.464 4.057 12.605 1.811l110.933-60.48 69.077 59.2c4.232 3.628 10.544 3.387 14.485-.555l128-128c3.73-3.765 4.13-9.698.938-13.93z" fill="#fafafa" fill-oapcity=".8"/>
</svg>