<svg id="Capa_1" enable-background="new 0 0 512 512" height="512" viewBox="0 0 512 512" width="512" xmlns="http://www.w3.org/2000/svg"><g><path d="m256 0c-132.638 0-240 107.337-240 239.992 0 58.156 20.91 113.886 59 157.591v99.4c0 13.318 16.167 20.048 25.606 10.606l51.305-51.303c159.391 76.687 344.089-39.837 344.089-216.294 0-132.634-107.341-239.992-240-239.992zm0 390.887c-8.257 0-14.95-6.693-14.95-14.949s6.693-14.949 14.95-14.949 14.95 6.693 14.95 14.949c0 8.255-6.693 14.949-14.95 14.949zm15-106.146v31.198c0 8.284-6.716 14.999-15 14.999s-15-6.716-15-14.999v-44.949c0-8.284 6.716-14.999 15-14.999 33.111 0 60.05-26.938 60.05-60.048s-26.938-60.048-60.05-60.048-60.05 26.938-60.05 60.048c0 8.284-6.716 14.999-15 14.999s-15-6.716-15-14.999c0-49.652 40.396-90.047 90.05-90.047s90.05 40.395 90.05 90.047c0 44.543-32.511 81.635-75.05 88.798z"/></g></svg>